<svg id="visual" viewBox="0 0 900 600" width="900" height="600" xmlns="http://www.w3.org/2000/svg" xmlns:xlink="http://www.w3.org/1999/xlink" version="1.1"><path d="M0 211L12.5 227C25 243 50 275 75 265.3C100 255.7 125 204.3 150 205.3C175 206.3 200 259.7 225 271.7C250 283.7 275 254.3 300 242.7C325 231 350 237 375 255.3C400 273.7 425 304.3 450 316C475 327.7 500 320.3 525 290.7C550 261 575 209 600 183.3C625 157.7 650 158.3 675 186C700 213.7 725 268.3 750 273.2C775 278 800 233 825 205C850 177 875 166 887.5 160.5L900 155L900 0L887.5 0C875 0 850 0 825 0C800 0 775 0 750 0C725 0 700 0 675 0C650 0 625 0 600 0C575 0 550 0 525 0C500 0 475 0 450 0C425 0 400 0 375 0C350 0 325 0 300 0C275 0 250 0 225 0C200 0 175 0 150 0C125 0 100 0 75 0C50 0 25 0 12.5 0L0 0Z" fill="#EB3937" stroke-linecap="round" stroke-linejoin="miter"></path></svg>